PathFileType	4	(X/Y/Z)	/Users/itak/Documents/Research/Walk-IL/dataset/trc/00145_00007.trc
DataRate	CameraRate	NumFrames	NumMarkers	Units	OrigDataRate	OrigDataStartFrame	OrigNumFrames
100.000000	100.000000	4	53	mm	100.000000	128	514
Frame#	Time	RPSI			LPSI			L3			STRN			T10			C7			CLAV			RBAK			LBAK			LSHO			LUPA			LAEL			LAOL			LWTS			LWPS			LFRA			LIFD			LHPS			LHTS			RSHO			RUPA			RAEL			RAOL			RWTS			RWPS			RFRA			RIFD			RHTS			RHPS			RBHD			LFHD			RFHD			LBHD			LHIP			RHIP			RASI			LASI			LKNE			LTHI			LANK			LTIP			LTOE			LMT1			LMT5			LHEE			RKNE			RTHI			RANK			RTIP			RTOE			RMT1			RMT5			RHEE			
		X1	Y1	Z1	X2	Y2	Z2	X3	Y3	Z3	X4	Y4	Z4	X5	Y5	Z5	X6	Y6	Z6	X7	Y7	Z7	X8	Y8	Z8	X9	Y9	Z9	X10	Y10	Z10	X11	Y11	Z11	X12	Y12	Z12	X13	Y13	Z13	X14	Y14	Z14	X15	Y15	Z15	X16	Y16	Z16	X17	Y17	Z17	X18	Y18	Z18	X19	Y19	Z19	X20	Y20	Z20	X21	Y21	Z21	X22	Y22	Z22	X23	Y23	Z23	X24	Y24	Z24	X25	Y25	Z25	X26	Y26	Z26	X27	Y27	Z27	X28	Y28	Z28	X29	Y29	Z29	X30	Y30	Z30	X31	Y31	Z31	X32	Y32	Z32	X33	Y33	Z33	X34	Y34	Z34	X35	Y35	Z35	X36	Y36	Z36	X37	Y37	Z37	X38	Y38	Z38	X39	Y39	Z39	X40	Y40	Z40	X41	Y41	Z41	X42	Y42	Z42	X43	Y43	Z43	X44	Y44	Z44	X45	Y45	Z45	X46	Y46	Z46	X47	Y47	Z47	X48	Y48	Z48	X49	Y49	Z49	X50	Y50	Z50	X51	Y51	Z51	X52	Y52	Z52	X53	Y53	Z53	

129	1.28	-757.1864013671875	1122.672607421875	1256.123168945312	-760.3391723632812	1123.176879882812	1120.89404296875	-766.0067138671875	1157.099975585938	1187.039306640625	-550.9647216796875	1357.458862304688	1185.067138671875	-805.6351928710938	1308.168823242188	1189.293334960938	-771.2938842773438	1600.378784179688	1176.69189453125	-588.52001953125	1491.916259765625	1181.234497070312	-826.1151733398438	1416.127563476562	1264.234375	-779.6047973632812	1581.316650390625	1074.024169921875	-693.416015625	1565.508422851562	1004.168273925781	-712.8624267578125	1433.546752929688	934.0381469726562	-691.207275390625	1214.613525390625	910.2926025390625	-754.8322143554688	1200.271728515625	970.665283203125	-575.14208984375	961.39453125	946.4039916992188	-657.0471801757812	931.9705810546875	923.056640625	-669.5239868164062	1099.149536132812	904.5991821289062	-548.6653442382812	769.1018676757812	961.7476196289062	-624.4293212890625	858.1324462890625	921.3436279296875	-557.2864379882812	874.1102294921875	934.7080078125	-711.2477416992188	1578.907836914062	1357.3408203125	-726.1521606445312	1505.394775390625	1421.98876953125	-728.5645141601562	1209.943237304688	1438.6591796875	-730.2645874023438	1208.6806640625	1342.846557617188	-576.7839965820312	970.2255249023438	1437.896118164062	-654.270263671875	952.3801879882812	1462.331787109375	-704.4850463867188	1137.462036132812	1455.555908203125	-543.6957397460938	776.5963745117188	1426.796997070312	-544.9976806640625	863.5059814453125	1447.665405273438	-615.1356811523438	856.1004638671875	1469.03076171875	-706.6781616210938	1777.389038085938	1256.281982421875	-570.5326538085938	1826.258178710938	1089.465942382812	-545.0680541992188	1839.919677734375	1216.752197265625	-740.0665893554688	1767.491943359375	1125.661499023438	-663.9928588867188	1036.297607421875	1008.966369628906	-626.9588623046875	1026.985717773438	1372.875732421875	-546.50634765625	1100.429565429688	1320.26025390625	-558.7536010742188	1101.948852539062	1052.383911132812	-527.6687622070312	537.3602905273438	1034.488037109375	-580.7269897460938	682.8726806640625	1011.823913574219	-783.23486328125	74.44266510009766	1015.938110351562	-697.2086181640625	320.2641906738281	1000.298706054688	-561.2145385742188	41.26473236083984	1068.079833984375	-637.4606323242188	50.0516471862793	1102.466552734375	-663.6202392578125	42.59668731689453	990.8104248046875	-849.4296875	96.27728271484375	1079.487060546875	-645.5396728515625	534.079345703125	1316.752319335938	-608.9385375976562	811.9533081054688	1356.140380859375	-790.97705078125	32.33724975585938	1281.7568359375	-679.4031372070312	399.9657592773438	1323.702880859375	-558.5543212890625	50.36126708984375	1236.011108398438	-616.8857421875	39.35212326049805	1192.697509765625	-658.6002197265625	43.03294372558594	1307.71630859375	-848.3196411132812	33.17337417602539	1231.84375	
130	1.29	-756.6573486328125	1122.621215820312	1256.844604492188	-760.06689453125	1123.036743164062	1121.6494140625	-765.5748291015625	1157.266967773438	1187.888671875	-549.8634643554688	1357.270385742188	1185.778564453125	-804.5183715820312	1308.426147460938	1190.703735351562	-769.5819702148438	1600.558715820312	1178.169189453125	-587.0613403320312	1491.832885742188	1182.007934570312	-824.5149536132812	1416.486694335938	1265.890014648438	-778.351318359375	1581.532592773438	1075.574462890625	-692.4695434570312	1565.597900390625	1005.332702636719	-712.548095703125	1433.701416015625	935.272216796875	-691.7432250976562	1214.720581054688	911.4564819335938	-755.100830078125	1200.52392578125	972.149658203125	-575.7728271484375	961.4189453125	947.060791015625	-657.7944946289062	932.0424194335938	924.114013671875	-670.2750854492188	1099.216186523438	905.6786499023438	-549.3035888671875	769.1346435546875	962.36572265625	-625.2733764648438	858.1913452148438	922.2794189453125	-558.022216796875	874.1093139648438	935.3132934570312	-708.903076171875	1579.0732421875	1358.555419921875	-723.72119140625	1505.644165039062	1423.265625	-726.6735229492188	1210.276733398438	1440.399780273438	-728.8155517578125	1208.883666992188	1344.643432617188	-574.8916015625	970.5225830078125	1439.431884765625	-652.2835693359375	952.6890869140625	1464.100463867188	-702.5543823242188	1137.78515625	1457.31640625	-541.9484252929688	776.8228149414062	1428.356079101562	-543.10400390625	863.7388916015625	1449.1806640625	-613.2135620117188	856.4061889648438	1470.65771484375	-704.0170288085938	1777.502319335938	1257.391967773438	-568.7387084960938	1825.734130859375	1089.680541992188	-542.507568359375	1839.6337890625	1216.799682617188	-738.2045288085938	1767.428344726562	1126.998291015625	-663.4933471679688	1036.22412109375	1009.6806640625	-626.6773681640625	1026.839233398438	1373.562744140625	-545.9822387695312	1100.138671875	1321.125854492188	-558.425048828125	1102.039672851562	1053.181396484375	-517.2149047851562	539.3987426757812	1035.986328125	-573.2542114257812	684.18115234375	1013.138244628906	-780.9400634765625	79.96180725097656	1016.375549316406	-689.5806274414062	324.3516845703125	1001.533630371094	-560.7423095703125	41.14366912841797	1067.352905273438	-635.9156494140625	51.09578323364258	1102.3681640625	-662.8056640625	43.84529495239258	991.128173828125	-845.9593505859375	103.9079132080078	1080.121704101562	-645.4632568359375	533.888427734375	1317.526123046875	-608.7889404296875	811.80224609375	1356.922729492188	-791.0248413085938	32.28747940063477	1281.8056640625	-679.4508056640625	399.8169555664062	1324.318481445312	-558.5116577148438	50.35991668701172	1236.139526367188	-616.9534912109375	39.50674057006836	1192.820434570312	-658.6781616210938	42.95593643188477	1307.829956054688	-848.3607788085938	33.1415901184082	1231.83056640625	
131	1.3	-756.05322265625	1122.57080078125	1257.501708984375	-759.7108154296875	1122.850341796875	1122.34228515625	-765.0704956054688	1157.429321289062	1188.6708984375	-548.649169921875	1357.045654296875	1186.4453125	-803.2818603515625	1308.675415039062	1192.057861328125	-767.7488403320312	1600.723999023438	1179.619750976562	-585.4984130859375	1491.714233398438	1182.742309570312	-822.79541015625	1416.84228515625	1267.49951171875	-776.9703369140625	1581.73974609375	1077.091796875	-691.3941040039062	1565.66796875	1006.459899902344	-712.1668090820312	1433.835083007812	936.4812622070312	-692.2949829101562	1214.799926757812	912.618408203125	-755.3646240234375	1200.765991210938	973.6705932617188	-576.444091796875	961.4063720703125	947.7028198242188	-658.5894775390625	932.0734252929688	925.19921875	-671.0731201171875	1099.245727539062	906.7735595703125	-549.979248046875	769.1311645507812	962.9801025390625	-626.1597900390625	858.2327270507812	923.2387084960938	-558.8169555664062	874.06494140625	935.9011840820312	-706.40771484375	1579.203857421875	1359.728515625	-721.1597290039062	1505.861328125	1424.506469726562	-724.7376098632812	1210.58642578125	1442.11279296875	-727.334228515625	1209.055419921875	1346.422607421875	-572.8421020507812	970.8525390625	1440.933715820312	-650.12255859375	952.98291015625	1465.820922851562	-700.5573120117188	1138.068725585938	1459.047729492188	-539.8826904296875	777.1264038085938	1429.88671875	-540.9771728515625	864.0196533203125	1450.664794921875	-611.0045776367188	856.656005859375	1472.272216796875	-701.2600708007812	1777.559448242188	1258.487426757812	-566.89501953125	1825.222290039062	1089.87060546875	-539.8729248046875	1839.341186523438	1216.81005859375	-736.2686157226562	1767.337646484375	1128.338500976562	-662.9110717773438	1036.104125976562	1010.375427246094	-626.3690185546875	1026.69580078125	1374.216796875	-545.40380859375	1099.820678710938	1321.968872070312	-557.985595703125	1102.097900390625	1053.963134765625	-506.7965698242188	541.6587524414062	1037.437255859375	-565.7704467773438	685.6281127929688	1014.35986328125	-778.1649169921875	85.64431762695312	1016.943481445312	-681.5975341796875	328.5103454589844	1002.771606445312	-559.8583374023438	41.12336730957031	1066.531616210938	-633.8987426757812	52.29037857055664	1102.318359375	-661.6668701171875	45.39231109619141	991.494140625	-841.9310302734375	111.5139694213867	1080.875732421875	-645.4140014648438	533.7135620117188	1318.330444335938	-608.6265869140625	811.6394653320312	1357.696655273438	-791.0737915039062	32.22901916503906	1281.866088867188	-679.5377807617188	399.6943969726562	1324.964111328125	-558.437744140625	50.33847427368164	1236.307983398438	-616.99853515625	39.68758773803711	1192.961181640625	-658.7366333007812	42.87324905395508	1307.962524414062	-848.393798828125	33.12089920043945	1231.827270507812	
132	1.31	-755.352783203125	1122.511108398438	1258.0908203125	-759.2442626953125	1122.62060546875	1122.962036132812	-764.47802734375	1157.578857421875	1189.384033203125	-547.3251342773438	1356.78173828125	1187.0703125	-801.9262084960938	1308.91015625	1193.340576171875	-765.7916259765625	1600.878051757812	1181.029541015625	-583.8270263671875	1491.553100585938	1183.435913085938	-820.9641723632812	1417.189086914062	1269.04443359375	-775.4493408203125	1581.9384765625	1078.557983398438	-690.1780395507812	1565.7060546875	1007.537658691406	-711.7029418945312	1433.931762695312	937.6600952148438	-692.846435546875	1214.836303710938	913.7717895507812	-755.6047973632812	1200.98828125	975.2174682617188	-577.1533203125	961.3392333984375	948.3284301757812	-659.42578125	932.0484008789062	926.3059692382812	-671.9047241210938	1099.224731445312	907.8779296875	-550.6904907226562	769.0740356445312	963.5831909179688	-627.0790405273438	858.24365234375	924.2111206054688	-559.6663818359375	873.9620361328125	936.4689331054688	-703.7733154296875	1579.287963867188	1360.853515625	-718.4788208007812	1506.026123046875	1425.700927734375	-722.7415771484375	1210.851318359375	1443.796264648438	-725.8016357421875	1209.169311523438	1348.17236328125	-570.6329956054688	971.1942138671875	1442.387451171875	-647.7844848632812	953.24609375	1467.489624023438	-698.4794921875	1138.29638671875	1460.74267578125	-537.50439453125	777.485107421875	1431.387573242188	-538.6207885742188	864.3328247070312	1452.112915039062	-608.5044555664062	856.8379516601562	1473.886840820312	-698.4074096679688	1777.558227539062	1259.564086914062	-564.9970703125	1824.726684570312	1090.0380859375	-537.16796875	1839.042846679688	1216.786865234375	-734.2501220703125	1767.207397460938	1129.673461914062	-662.2310791015625	1035.945434570312	1011.0458984375	-626.0034790039062	1026.549682617188	1374.8349609375	-544.7407836914062	1099.478881835938	1322.785278320312	-557.416015625	1102.12548828125	1054.72802734375	-496.52392578125	544.1034545898438	1038.825561523438	-558.3502197265625	687.19140625	1015.484130859375	-774.8099975585938	91.33268737792969	1017.66845703125	-673.338134765625	332.6372375488281	1004.015747070312	-558.3572387695312	41.28411865234375	1065.654052734375	-631.2576293945312	53.66005706787109	1102.327270507812	-660.0304565429688	47.26737594604492	991.91943359375	-837.3195190429688	118.8608627319336	1081.79541015625	-645.4039306640625	533.5572509765625	1319.156616210938	-608.4275512695312	811.4635620117188	1358.4482421875	-791.1260375976562	32.16096878051758	1281.939331054688	-679.665771484375	399.6001281738281	1325.635009765625	-558.3431396484375	50.29974365234375	1236.505981445312	-617.01708984375	39.89461135864258	1193.113037109375	-658.7713012695312	42.78948974609375	1308.109252929688	-848.4192504882812	33.10928726196289	1231.838012695312	
